<?xml version="1.0" standalone="no"?>
<!DOCTYPE svg PUBLIC "-//W3C//DTD SVG 20010904//EN"
 "http://www.w3.org/TR/2001/REC-SVG-20010904/DTD/svg10.dtd">
<svg version="1.0" xmlns="http://www.w3.org/2000/svg"
 width="48.000000pt" height="48.000000pt" viewBox="0 0 48.000000 48.000000"
 preserveAspectRatio="xMidYMid meet">

<g transform="translate(0.000000,48.000000) scale(0.100000,-0.100000)"
fill="#000000" stroke="none">
<path d="M16 464 c-24 -23 -24 -425 0 -448 23 -24 425 -24 448 0 24 23 24 425
0 448 -23 24 -425 24 -448 0z m174 -173 c0 -5 -7 -12 -16 -15 -15 -6 -15 -9 5
-29 11 -13 21 -28 21 -35 0 -16 -38 -35 -52 -26 -7 5 -3 10 12 16 l23 8 -21
23 c-25 27 -27 38 -10 55 14 14 38 16 38 3z m81 -18 c7 -19 8 -37 1 -55 -7
-18 -6 -30 2 -38 8 -9 5 -11 -14 -5 -40 12 -50 25 -50 64 0 61 42 84 61 34z
m39 -18 c0 -31 5 -47 15 -51 24 -9 17 -24 -10 -24 -24 0 -25 3 -25 60 0 33 4
60 10 60 6 0 10 -20 10 -45z"/>
<path d="M237 273 c-11 -10 -8 -61 3 -68 6 -4 10 10 10 34 0 42 -2 46 -13 34z"/>
</g>
</svg>
